<?xml version="1.0" encoding="UTF-8" standalone="no"?>
<!-- Created with Inkscape (http://www.inkscape.org/) -->

<svg
   width="720"
   height="720"
   viewBox="0 0 720 720"
   version="1.1"
   id="svg1"
   xml:space="preserve"
   sodipodi:docname="icon.svg"
   inkscape:version="1.4.3 (0d15f75042, 2025-12-25)"
   xmlns:inkscape="http://www.inkscape.org/namespaces/inkscape"
   xmlns:sodipodi="http://sodipodi.sourceforge.net/DTD/sodipodi-0.dtd"
   xmlns="http://www.w3.org/2000/svg"
   xmlns:svg="http://www.w3.org/2000/svg"><sodipodi:namedview
     id="namedview1"
     pagecolor="#ffffff"
     bordercolor="#000000"
     borderopacity="0.25"
     inkscape:showpageshadow="2"
     inkscape:pageopacity="0.0"
     inkscape:pagecheckerboard="0"
     inkscape:deskcolor="#d1d1d1"
     inkscape:document-units="px"
     inkscape:export-bgcolor="#ffffff00"
     inkscape:zoom="0.64"
     inkscape:cx="251.5625"
     inkscape:cy="371.09375"
     inkscape:window-width="2560"
     inkscape:window-height="1352"
     inkscape:window-x="0"
     inkscape:window-y="0"
     inkscape:window-maximized="1"
     inkscape:current-layer="g4" /><defs
     id="defs1"><rect
       x="437.52232"
       y="254.1165"
       width="282.47768"
       height="465.8835"
       id="rect4" /><rect
       x="101.51436"
       y="166.68407"
       width="504.43864"
       height="322.7154"
       id="rect1" /></defs><g
     inkscape:label="Layer 1"
     inkscape:groupmode="layer"
     id="layer1"><rect
       style="fill:#00bedf;stroke:#ffffff;stroke-width:0.64252;fill-opacity:1"
       id="rect2"
       width="720"
       height="720"
       x="0"
       y="0"
       rx="3"
       ry="3" /><g
       style="fill:#f9f9f9"
       id="g2"
       transform="matrix(9.0705035,0,0,9.0705035,312.4116,187.89173)" /><g
       id="g4"
       transform="translate(-18.087659,-1.9514566)"
       style="fill:#ffffff;fill-opacity:1"><path
         style="font-style:italic;font-weight:bold;font-size:96px;font-family:'NV Bitter';-inkscape-font-specification:'NV Bitter Bold Italic';letter-spacing:1.7351px;white-space:pre;stroke:#ffffff;stroke-width:3.50961"
         d="m 87.449807,505.92794 61.352103,-390.13651 25.69448,45.6208 -66.59588,-22.02383 6.29252,-38.27952 110.11918,-3.670641 -38.8039,241.737801 -9.43879,-11.53629 h 63.974 l -19.40195,8.91441 56.10834,-71.31528 4.19502,7.86566 -33.56013,-6.8169 6.29252,-38.27953 123.2286,-4.71939 -5.76815,38.27952 -43.52329,9.96317 20.97508,-11.5363 -76.55904,95.43662 3.67064,-18.87757 45.6208,130.0455 -8.91441,-9.96316 38.27952,11.01192 -6.29252,38.27952 h -83.90033 l -42.47454,-133.19177 9.43879,4.7194 h -59.77898 l 12.58505,-4.19502 -20.97508,132.66739 z m 250.691323,120.60671 6.29253,-38.27952 72.8884,-21.49946 -38.27952,40.37703 53.48646,-340.84506 9.43878,12.58505 -47.19393,-13.10943 6.29252,-38.27952 106.44854,-3.67064 -18.87757,90.71722 -19.40195,37.75515 q 8.91441,-44.04767 28.31636,-73.41278 19.92632,-29.88949 45.09642,-44.57205 25.69448,-14.68256 50.3402,-14.68256 20.4507,0 37.75514,10.48754 17.30444,10.48754 27.79198,34.08451 10.48754,23.59697 10.48754,62.40087 0,50.86457 -17.82881,89.14409 -17.82882,38.27952 -49.81582,61.87649 -31.987,23.59697 -76.55905,30.41387 -44.04767,6.8169 -96.48537,-5.24377 l 39.85265,-6.8169 -17.82882,113.26543 -25.69447,-43.52329 70.26652,22.54821 -6.29252,38.27952 z m 134.7649,-159.93499 -14.15818,-19.40195 q 30.93824,12.06067 56.10834,8.39003 25.69447,-3.67064 43.52329,-19.40195 17.82882,-16.25568 27.26761,-42.47454 9.96316,-26.21885 9.96316,-59.2546 0,-30.41387 -9.43879,-43.52329 -8.9144,-13.63381 -23.59696,-13.63381 -11.01192,0 -22.54821,7.34128 -11.5363,7.34128 -22.54822,21.49946 -11.01191,14.15818 -19.40195,35.13326 -8.39003,20.97508 -12.58504,48.24269 z"
         id="text4"
         aria-label="kp" /></g></g><style
     type="text/css"
     id="style1">
	.st0{fill:#505353;}
	.st1{fill:#00BEDF;}
</style><style
     type="text/css"
     id="style1-2">
	.st0{fill:#505353;}
	.st1{fill:#00BEDF;}
</style></svg>
